# xmcd
#
# Track frame offsets:
#	150
#	19930
#	38722
#	53265
#	73172
#	89667
#	107192
#	118345
#	135075
#	149845
#	167465
#	182959
#	203312
#	215525
#	226870
#	245612
# Disc length: 3440 seconds
# Revision: 1
# Processed by: cddbd v1.5.1PL0 Copyright (c) Steve Scherf et al.
#
# Submitted via: libkcddb 0.10
#
DISCID=e20d6e10
DTITLE=Dave Peabody - Side By Slide
DYEAR=1900
DGENRE=Unknown
TTITLE0=Jumper on the Line
TTITLE1=Betty and Dupree
TTITLE2=Keeps on raining
TTITLE3=Poor Kelly
TTITLE4=You got to move
TTITLE5=When the sun goes down
TTITLE6=High risk mama
TTITLE7=Been on the road too long
TTITLE8=Elvena
TTITLE9=In the wilderness
TTITLE10=Lonesome atlanta blues
TTITLE11=New shake 'em on down
TTITLE12=Old rock island blues
TTITLE13=Guitar rag
TTITLE14=Our last goodbye
TTITLE15=If you don't want me
EXTD=with Gipsy Dave Smith (1 - 4)
EXTD=with Mary Flower (5 - 8)
EXTD=with Michael Messer (9 - 12)
EXTD=with Steve James (13 - 16)
EXTT0=
EXTT1=
EXTT2=
EXTT3=
EXTT4=
EXTT5=
EXTT6=
EXTT7=
EXTT8=
EXTT9=
EXTT10=
EXTT11=
EXTT12=
EXTT13=
EXTT14=
EXTT15=
PLAYORDER=
